Coordinates
version=1
nRows=26
nColumns=24
inDegrees=yes

Units are S.I. units (second, meters, Newtons, ...)
Angles are in degrees.

endheader
time	pelvis_tilt	pelvis_list	pelvis_rotation	pelvis_tx	pelvis_ty	pelvis_tz	hip_flexion_r	hip_adduction_r	hip_rotation_r	knee_angle_r	ankle_angle_r	subtalar_angle_r	mtp_angle_r	hip_flexion_l	hip_adduction_l	hip_rotation_l	knee_angle_l	ankle_angle_l	subtalar_angle_l	mtp_angle_l	lumbar_extension	lumbar_bending	lumbar_rotation
      3.18000000	     24.40417610	      3.40363876	     -3.20251776	      0.89296964	      0.96271821	      0.01748955	    -38.42666389	     -5.90593776	     -6.27933540	    -30.61957552	     -9.58305722	      1.02625001	     55.72048365	     -9.68826720	      7.46026798	    -16.79447139	     -7.45534320	     -3.69852163	      3.27120888	     23.94654597	    -29.04049376	     -8.10657921	      4.76474081
      3.18500000	     24.39385849	      3.75604702	     -3.39255023	      0.89945282	      0.96340429	      0.01696607	    -37.66974106	     -6.52429673	     -6.39993871	    -32.21994937	    -11.28543775	      0.81347136	     55.71797771	    -10.06460337	      7.92818069	    -16.69235250	     -7.50444009	     -3.36343078	      3.35095407	     23.86243155	    -28.95277873	     -8.57786568	      4.77359540
      3.19000000	     24.32879679	      4.05795788	     -3.55031003	      0.90582729	      0.96404229	      0.01639635	    -36.83095737	     -7.07011905	     -6.46549435	    -33.79040975	    -13.00050385	      0.33598533	     55.92221545	    -10.40786914	      8.34941662	    -16.45424773	     -7.48977329	     -2.97681469	      3.27797393	     23.52689905	    -28.81824561	     -8.97781722	      4.79514578
      3.19500000	     24.31368718	      4.34068944	     -3.73024408	      0.91219140	      0.96477540	      0.01586401	    -36.06347724	     -7.61742338	     -6.46509497	    -35.25171987	    -14.69160070	      0.20374416	     55.94507212	    -10.81228279	      8.75649375	    -16.31686223	     -7.46739711	     -2.61712198	      3.26078553	     23.37753419	    -28.73401748	     -9.36786583	      4.81298456
      3.20000000	     24.26825701	      4.61377759	     -3.86257026	      0.91844814	      0.96543116	      0.01521267	    -35.24847914	     -8.14233851	     -6.54139434	    -36.69263420	    -16.29401897	     -0.24577433	     57.31731468	    -11.21366178	      9.16075784	    -16.01662449	     -7.39608088	     -1.90203645	      3.36833173	     20.76010250	    -28.63313285	     -9.71583714	      4.83705659
      3.20500000	     24.24803962	      4.80888398	     -4.05630524	      0.92468883	      0.96618216	      0.01470879	    -34.45680374	     -8.61018153	     -6.44183563	    -38.05967954	    -17.66991292	     -0.44604488	     57.13086732	    -11.65998163	      9.48946966	    -15.91671703	     -7.26242948	     -1.58846213	      3.42121887	     20.73734190	    -28.54892849	    -10.01384365	      4.93533532
      3.21000000	     24.20381959	      4.97318648	     -4.23781376	      0.93080231	      0.96688602	      0.01416297	    -33.61907120	     -9.03660977	     -6.32712388	    -39.41862664	    -18.73218273	     -0.81189931	     56.79248511	    -12.10342069	      9.79756969	    -15.72906595	     -7.06538887	     -1.27537371	      3.34746288	     20.59446766	    -28.45174823	    -10.26750200	      5.08553166
      3.21500000	     24.14466336	      5.11401066	     -4.35533939	      0.93687523	      0.96761582	      0.01353684	    -32.79201495	     -9.40185217	     -6.22951605	    -40.70216187	    -19.48030933	     -0.79566858	     55.12032829	    -12.55645226	     10.07391285	    -15.42851583	     -6.82716426	     -0.89678251	      3.28807009	     19.61081805	    -28.35141944	    -10.46612861	      5.14357826
      3.22000000	     24.15752052	      5.20906923	     -4.55717645	      0.94292351	      0.96843578	      0.01305574	    -32.04670350	     -9.75844226	     -6.03489326	    -41.88085404	    -20.08286763	     -0.94552904	     54.97565393	    -13.08298333	     10.31851687	    -15.38187033	     -6.59471117	     -0.59465113	      3.32513743	     19.59441853	    -28.31614394	    -10.65524123	      5.30491488
      3.22500000	     24.13313253	      5.25465208	     -4.73888801	      0.94888211	      0.96922837	      0.01255115	    -31.26000867	    -10.04086115	     -5.80233855	    -43.01462784	    -20.33905276	     -1.11350620	     54.74799544	    -13.58958686	     10.51182560	    -15.27944923	     -6.31025313	     -0.33521133	      3.33148717	     19.54320287	    -28.25105515	    -10.77875317	      5.49259550
      3.23000000	     24.09349158	      5.27703372	     -4.86367794	      0.95473560	      0.96999801	      0.01196984	    -30.46260213	    -10.26526805	     -5.59927629	    -44.13856645	    -20.00809514	     -0.90567902	     52.25004777	    -14.07550926	     10.66962312	    -15.08791453	     -6.03829247	      0.03248009	      3.31909443	     18.84703986	    -28.19090151	    -10.84960317	      5.63456742
      3.23500000	     24.10935017	      5.21276547	     -5.02586176	      0.96054958	      0.97089044	      0.01148328	    -29.75374874	    -10.39511257	     -5.29698606	    -45.09799765	    -19.67182879	     -1.05240907	     52.17581401	    -14.64626084	     10.74814579	    -15.04345131	     -5.71557170	      0.25378969	      3.38743671	     18.83996408	    -28.18703012	    -10.84771834	      5.85261418
      3.24000000	     24.05454029	      5.13975664	     -5.19857149	      0.96632140	      0.97169046	      0.01098937	    -28.94520015	    -10.52513102	     -4.99163093	    -46.04902229	    -19.08274140	     -1.03252903	     51.82256832	    -15.11492508	     10.81468705	    -15.05134813	     -5.43872281	      0.54146354	      3.47295634	     18.79672475	    -28.10899721	    -10.83341269	      6.10796561
      3.24500000	     24.02772186	      5.03713335	     -5.30233855	      0.97196518	      0.97252039	      0.01040407	    -28.10131560	    -10.60026334	     -4.77274708	    -47.06659430	    -18.09384454	     -0.81962449	     49.35868095	    -15.60858317	     10.83237062	    -14.99397106	     -5.18346898	      0.90671382	      3.64136428	     18.37307418	    -28.08861314	    -10.75505575	      6.26994909
      3.25000000	     23.96372695	      4.90540248	     -5.47186275	      0.97748363	      0.97332233	      0.00979277	    -27.02379047	    -10.71892515	     -4.56719363	    -48.21042578	    -17.60847246	     -1.06310124	     49.27016429	    -16.08490251	     10.85396106	    -14.99635833	     -4.83568674	      1.04897820	      3.67153317	     18.34999770	    -28.03098243	    -10.65505124	      6.56804444
      3.25500000	     23.84678312	      4.78349170	     -5.63440612	      0.98280677	      0.97400231	      0.00914645	    -25.70967646	    -10.86929290	     -4.42930862	    -49.52661294	    -17.17585399	     -1.36130597	     49.15387723	    -16.45828162	     10.87400843	    -14.98868348	     -4.55300613	      1.20542321	      3.71561704	     18.33619635	    -27.94064541	    -10.55521343	      6.82582386
      3.26000000	     23.64840973	      4.67453171	     -5.81581578	      0.98802221	      0.97453600	      0.00844590	    -24.17513522	    -11.05855985	     -4.31369689	    -50.93593189	    -16.88206888	     -1.70162369	     48.98051123	    -16.72421764	     10.91248872	    -15.00587273	     -4.28437069	      1.39331342	      3.73254667	     18.32004848	    -27.77255968	    -10.45740547	      7.13078438
      3.26500000	     23.35249404	      4.58005877	     -5.93381208	      0.99314657	      0.97489058	      0.00764488	    -22.51732889	    -11.22682091	     -4.25450165	    -52.32329693	    -16.45802945	     -1.85044374	     48.28405788	    -16.84922227	     10.93526777	    -14.93722534	     -4.08609402	      1.68117747	      3.69848966	     18.23059447	    -27.51986544	    -10.33613166	      7.37138703
      3.27000000	     23.18723893	      4.47435467	     -6.16407553	      0.99830708	      0.97538340	      0.00707440	    -21.06933387	    -11.38913894	     -4.09414884	    -53.50270291	    -15.95434977	     -2.33208559	     48.02202383	    -17.15639672	     10.99169383	    -15.09213832	     -3.79209049	      1.84886125	      3.78492955	     18.19215315	    -27.38487237	    -10.26224065	      7.70893421
      3.27500000	     22.97205599	      4.32929249	     -6.31926408	      1.00349224	      0.97584654	      0.00651471	    -19.72844640	    -11.41522107	     -3.92560087	    -54.43552499	    -15.07079590	     -2.67303800	     47.70738199	    -17.40216893	     10.96788744	    -15.23932674	     -3.54070489	      2.06873262	      3.99290984	     18.16512212	    -27.20841923	    -10.12094058	      7.99262601
      3.28000000	     22.85164520	      4.12210569	     -6.43796064	      1.00877702	      0.97647397	      0.00604388	    -18.67974982	    -11.30714183	     -3.74267528	    -55.09918829	    -13.61261143	     -2.68425824	     44.98152721	    -17.77589590	     10.86508234	    -15.48740901	     -3.29048260	      2.37862835	      4.51631025	     17.68703456	    -27.13168166	     -9.91650307	      8.24133182
      3.28500000	     22.68348831	      3.93048182	     -6.51826212	      1.01400829	      0.97702166	      0.00551254	    -17.66007599	    -11.17770445	     -3.60439079	    -55.58181599	    -12.30640333	     -3.00951782	     44.90182477	    -18.10762352	     10.77442424	    -15.63792134	     -2.99714419	      2.57668099	      4.76373718	     17.69366991	    -27.01821282	     -9.70569065	      8.45608312
      3.29000000	     22.51832542	      3.72297164	     -6.62380592	      1.01926156	      0.97754817	      0.00506214	    -16.63552972	    -11.02154150	     -3.45409088	    -56.00622494	    -11.00622620	     -3.36291397	     44.58798751	    -18.44557360	     10.67074506	    -15.91944066	     -2.70546762	      2.80237081	      5.21944761	     17.68348763	    -26.90125198	     -9.48972191	      8.68934510
      3.29500000	     22.44340088	      3.46504544	     -6.63773006	      1.02454675	      0.97820093	      0.00455585	    -15.77530002	    -10.77616451	     -3.41991341	    -56.31170018	     -9.52178278	     -3.53543844	     42.38854134	    -18.87338250	     10.48237281	    -16.27543128	     -2.48255121	      3.18490776	      6.02382563	     17.31324801	    -26.89913211	     -9.19362679	      8.84627450
      3.30000000	     22.22139304	      3.29710901	     -6.71375851	      1.02968502	      0.97858142	      0.00405866	    -14.66916832	    -10.62300751	     -3.33786800	    -56.64098424	     -8.35170698	     -4.05242585	     42.21458845	    -19.17870031	     10.42487533	    -16.42999393	     -2.09125134	      3.24827498	      6.20689301	     17.27088155	    -26.74032352	     -8.99643571	      9.03152011
      3.30500000	     22.10728486	      3.06164128	     -6.72180168	      1.03494748	      0.97911201	      0.00358039	    -13.76528880	    -10.37089775	     -3.34589127	    -56.82263939	     -6.99240749	     -4.33021674	     40.55174108	    -19.57774877	     10.26287886	    -16.81248233	     -1.81938052	      3.56916105	      6.99786252	     16.96773507	    -26.69674493	     -8.71789613	      9.16773442
